<svg width="35" height="29" viewBox="0 0 35 29" fill="none" xmlns="http://www.w3.org/2000/svg">
<path d="M1.25 6.75H5.25L7.93 20.14C8.02144 20.6004 8.27191 21.014 8.63755 21.3083C9.00318 21.6026 9.4607 21.759 9.93 21.75H19.65C20.1193 21.759 20.5768 21.6026 20.9425 21.3083C21.3081 21.014 21.5586 20.6004 21.65 20.14L23.25 11.75H6.25M10.25 26.75C10.25 27.3023 9.80228 27.75 9.25 27.75C8.69772 27.75 8.25 27.3023 8.25 26.75C8.25 26.1977 8.69772 25.75 9.25 25.75C9.80228 25.75 10.25 26.1977 10.25 26.75ZM21.25 26.75C21.25 27.3023 20.8023 27.75 20.25 27.75C19.6977 27.75 19.25 27.3023 19.25 26.75C19.25 26.1977 19.6977 25.75 20.25 25.75C20.8023 25.75 21.25 26.1977 21.25 26.75Z" stroke="white" stroke-width="2" stroke-linecap="round" stroke-linejoin="round"/>
<path d="M25.794 10.4276C25.1596 10.4276 24.6127 10.2772 24.1534 9.97656C23.6941 9.67353 23.3402 9.23911 23.0916 8.6733C22.843 8.10511 22.7199 7.42211 22.7223 6.62429C22.7247 5.82647 22.849 5.14938 23.0952 4.59304C23.3438 4.03433 23.6965 3.60937 24.1534 3.31818C24.6127 3.02462 25.1596 2.87784 25.794 2.87784C26.4285 2.87784 26.9754 3.02462 27.4347 3.31818C27.8963 3.60937 28.2514 4.03433 28.5 4.59304C28.7486 5.15175 28.8717 5.82884 28.8693 6.62429C28.8693 7.42448 28.745 8.10866 28.4964 8.67685C28.2479 9.24503 27.8939 9.67945 27.4347 9.98011C26.9777 10.2784 26.4309 10.4276 25.794 10.4276ZM25.794 8.98935C26.1728 8.98935 26.4794 8.7964 26.7138 8.41051C26.9482 8.02225 27.0642 7.42685 27.0618 6.62429C27.0618 6.09872 27.0085 5.66548 26.902 5.32457C26.7955 4.9813 26.6475 4.72562 26.4581 4.55753C26.2687 4.38944 26.0473 4.3054 25.794 4.3054C25.4176 4.3054 25.1134 4.49598 24.8814 4.87713C24.6494 5.25592 24.5322 5.8383 24.5298 6.62429C24.5275 7.15696 24.5784 7.59848 24.6825 7.94886C24.7891 8.29924 24.9382 8.56084 25.13 8.73366C25.3217 8.90412 25.5431 8.98935 25.794 8.98935ZM33.139 2.97727V10.25H31.3847V4.6179H31.3421L29.7157 5.61222V4.09233L31.509 2.97727H33.139Z" fill="#1B3764"/>
</svg>
